<svg width="39" height="39" viewBox="0 0 39 39" fill="none" xmlns="http://www.w3.org/2000/svg">
<path d="M19.5 34.125C17.5794 34.125 15.6776 33.7467 13.9033 33.0117C12.1289 32.2768 10.5166 31.1995 9.15856 29.8414C7.80051 28.4834 6.72324 26.8711 5.98826 25.0967C5.25329 23.3224 4.875 21.4206 4.875 19.5C4.875 17.5794 5.25329 15.6776 5.98826 13.9033C6.72324 12.1289 7.80051 10.5166 9.15856 9.15856C10.5166 7.80051 12.1289 6.72324 13.9033 5.98826C15.6776 5.25329 17.5794 4.875 19.5 4.875C21.4206 4.875 23.3224 5.25329 25.0967 5.98826C26.8711 6.72324 28.4834 7.80051 29.8414 9.15857C31.1995 10.5166 32.2768 12.1289 33.0117 13.9033C33.7467 15.6776 34.125 17.5794 34.125 19.5C34.125 21.4206 33.7467 23.3224 33.0117 25.0967C32.2768 26.8711 31.1995 28.4834 29.8414 29.8414C28.4834 31.1995 26.8711 32.2768 25.0967 33.0117C23.3224 33.7467 21.4206 34.125 19.5 34.125L19.5 34.125Z" stroke="#7B1919" stroke-width="2" stroke-linecap="round"/>
<path d="M14.625 14.625L24.375 24.375" stroke="#7B1919" stroke-width="2" stroke-linecap="round"/>
<path d="M24.375 14.625L14.625 24.375" stroke="#7B1919" stroke-width="2" stroke-linecap="round"/>
</svg>
