<svg width="50" height="50" viewBox="0 0 50 50" fill="none" xmlns="http://www.w3.org/2000/svg">
<path d="M29.1288 13.2071L12.1954 30.1405L12.1847 30.1512L12.1847 30.1512C12.1716 30.1643 12.1581 30.1777 12.1443 30.1914C11.9921 30.3426 11.7995 30.5341 11.6626 30.7759C11.5258 31.0176 11.4607 31.2813 11.4093 31.4896C11.4046 31.5085 11.4001 31.527 11.3956 31.5449L9.64872 38.5323L10.6152 38.774L9.64872 38.5323C9.64592 38.5436 9.64299 38.5552 9.63997 38.5672C9.60315 38.7137 9.55215 38.9166 9.53458 39.0962C9.51436 39.3029 9.50768 39.7549 9.87646 40.1236C10.2452 40.4924 10.6972 40.4857 10.9039 40.4655C11.0835 40.4479 11.2864 40.3969 11.4329 40.3601C11.4449 40.3571 11.4565 40.3542 11.4677 40.3514L18.4552 38.6045C18.4731 38.6 18.4916 38.5955 18.5105 38.5908C18.7188 38.5394 18.9825 38.4743 19.2242 38.3374C19.466 38.2006 19.6574 38.0079 19.8087 37.8558C19.8224 37.8419 19.8358 37.8285 19.8489 37.8154L36.793 20.8713L36.8315 20.8329C37.1314 20.533 37.4229 20.2417 37.6309 19.969C37.8654 19.6616 38.0859 19.2637 38.0859 18.75C38.0859 18.2363 37.8654 17.8384 37.6309 17.531C37.4228 17.2583 37.1314 16.9669 36.8314 16.6671L36.793 16.6287L33.3714 13.2071L33.3349 13.1706L33.3329 13.1686C33.0331 12.8687 32.7418 12.5772 32.4691 12.3692C32.1617 12.1347 31.7637 11.9142 31.2501 11.9142C30.7364 11.9142 30.3385 12.1347 30.0311 12.3692C29.7584 12.5772 29.467 12.8687 29.1672 13.1686C29.1544 13.1814 29.1416 13.1943 29.1288 13.2071Z" stroke="#555353" stroke-width="2"/>
<path d="M26.0417 15.625L32.2917 11.4584L38.5417 17.7084L34.3751 23.9584L26.0417 15.625Z" fill="#555353"/>
</svg>
