<svg width="48" height="48" viewBox="0 0 48 48" fill="none" xmlns="http://www.w3.org/2000/svg">
<path d="M29.0005 24.0001L29.7814 24.6248L30.2811 24.0001L29.7814 23.3754L29.0005 24.0001ZM11.0005 23.0001C10.4482 23.0001 10.0005 23.4478 10.0005 24.0001C10.0005 24.5523 10.4482 25.0001 11.0005 25.0001V23.0001ZM21.7814 34.6248L29.7814 24.6248L28.2196 23.3754L20.2196 33.3754L21.7814 34.6248ZM29.7814 23.3754L21.7814 13.3754L20.2196 14.6248L28.2196 24.6248L29.7814 23.3754ZM29.0005 23.0001H11.0005V25.0001H29.0005V23.0001Z" fill="white"/>
<path d="M13.6712 40.2785L13.5068 41.2649L13.6712 40.2785ZM13.6712 7.72147L13.5068 6.73507L13.6712 7.72147ZM13.8356 8.70786L32.6712 5.56859L32.3424 3.59581L13.5068 6.73507L13.8356 8.70786ZM35 7.54138V40.4586H37V7.54138H35ZM32.6712 42.4314L13.8356 39.2921L13.5068 41.2649L32.3424 44.4042L32.6712 42.4314ZM13 16.2639V9.69425H11V16.2639H13ZM13 38.3057V32.1319H11V38.3057H13ZM13.8356 39.2921C13.3534 39.2118 13 38.7946 13 38.3057H11C11 39.7723 12.0602 41.0238 13.5068 41.2649L13.8356 39.2921ZM35 40.4586C35 41.6945 33.8903 42.6346 32.6712 42.4314L32.3424 44.4042C34.7805 44.8106 37 42.9304 37 40.4586H35ZM32.6712 5.56859C33.8903 5.36542 35 6.3055 35 7.54138H37C37 5.06962 34.7805 3.18945 32.3424 3.59581L32.6712 5.56859ZM13.5068 6.73507C12.0602 6.97617 11 8.22774 11 9.69425H13C13 9.20541 13.3534 8.78822 13.8356 8.70786L13.5068 6.73507Z" fill="white"/>
</svg>
