<svg width="195" height="41" viewBox="0 0 195 41" fill="none" xmlns="http://www.w3.org/2000/svg">
<path d="M36.4167 0H9.58333C4.2906 0 0 4.47715 0 10V31C0 36.5228 4.2906 41 9.58333 41H36.4167C41.7094 41 46 36.5228 46 31V10C46 4.47715 41.7094 0 36.4167 0Z" fill="#C4C4C4"/>
<g clip-path="url(#clip0_90_556)">
<path d="M5.82227 8.19995H11.3303V27.512H23.2643V32H5.82227V8.19995ZM29.0472 12.688H21.4312V8.19995H42.1712V12.688H34.5552V32H29.0472V12.688Z" fill="white"/>
</g>
<path d="M46 32H37V41H46V32Z" fill="#C4C4C4"/>
<path d="M51.9922 12.2H55.8802V25.832H64.3042V29H51.9922V12.2ZM78.7668 22.592C78.7668 22.64 78.7428 22.976 78.6948 23.6H68.9268C69.1028 24.4 69.5188 25.032 70.1748 25.496C70.8308 25.96 71.6468 26.192 72.6228 26.192C73.2948 26.192 73.8868 26.096 74.3988 25.904C74.9268 25.696 75.4148 25.376 75.8628 24.944L77.8548 27.104C76.6388 28.496 74.8628 29.192 72.5268 29.192C71.0708 29.192 69.7828 28.912 68.6628 28.352C67.5428 27.776 66.6788 26.984 66.0708 25.976C65.4628 24.968 65.1588 23.824 65.1588 22.544C65.1588 21.28 65.4548 20.144 66.0468 19.136C66.6548 18.112 67.4788 17.32 68.5188 16.76C69.5748 16.184 70.7508 15.896 72.0468 15.896C73.3108 15.896 74.4548 16.168 75.4788 16.712C76.5028 17.256 77.3028 18.04 77.8788 19.064C78.4708 20.072 78.7668 21.248 78.7668 22.592ZM72.0708 18.728C71.2228 18.728 70.5108 18.968 69.9348 19.448C69.3588 19.928 69.0068 20.584 68.8788 21.416H75.2388C75.1108 20.6 74.7588 19.952 74.1828 19.472C73.6068 18.976 72.9028 18.728 72.0708 18.728ZM89.5875 28.376C89.2195 28.648 88.7635 28.856 88.2195 29C87.6915 29.128 87.1315 29.192 86.5395 29.192C85.0035 29.192 83.8115 28.8 82.9635 28.016C82.1315 27.232 81.7155 26.08 81.7155 24.56V19.256H79.7235V16.376H81.7155V13.232H85.4595V16.376H88.6755V19.256H85.4595V24.512C85.4595 25.056 85.5955 25.48 85.8674 25.784C86.1555 26.072 86.5555 26.216 87.0675 26.216C87.6595 26.216 88.1635 26.056 88.5795 25.736L89.5875 28.376ZM93.1291 11C93.8011 11 94.3531 11.216 94.7851 11.648C95.2171 12.064 95.4331 12.616 95.4331 13.304C95.4331 13.624 95.3931 13.944 95.3131 14.264C95.2331 14.584 95.0651 15.064 94.8091 15.704L93.4171 19.16H91.0411L92.0731 15.368C91.6731 15.192 91.3611 14.928 91.1371 14.576C90.9131 14.224 90.8011 13.8 90.8011 13.304C90.8011 12.616 91.0171 12.064 91.4491 11.648C91.8971 11.216 92.4571 11 93.1291 11ZM101.892 29.192C100.82 29.192 99.7725 29.064 98.7485 28.808C97.7245 28.536 96.9085 28.2 96.3005 27.8L97.5485 25.112C98.1245 25.48 98.8205 25.784 99.6365 26.024C100.452 26.248 101.252 26.36 102.036 26.36C103.62 26.36 104.412 25.968 104.412 25.184C104.412 24.816 104.196 24.552 103.764 24.392C103.332 24.232 102.668 24.096 101.772 23.984C100.716 23.824 99.8445 23.64 99.1565 23.432C98.4685 23.224 97.8685 22.856 97.3565 22.328C96.8605 21.8 96.6125 21.048 96.6125 20.072C96.6125 19.256 96.8445 18.536 97.3085 17.912C97.7885 17.272 98.4765 16.776 99.3725 16.424C100.284 16.072 101.356 15.896 102.588 15.896C103.5 15.896 104.404 16 105.3 16.208C106.212 16.4 106.964 16.672 107.556 17.024L106.308 19.688C105.172 19.048 103.932 18.728 102.588 18.728C101.788 18.728 101.188 18.84 100.788 19.064C100.388 19.288 100.188 19.576 100.188 19.928C100.188 20.328 100.404 20.608 100.836 20.768C101.268 20.928 101.956 21.08 102.9 21.224C103.956 21.4 104.82 21.592 105.492 21.8C106.164 21.992 106.748 22.352 107.244 22.88C107.74 23.408 107.988 24.144 107.988 25.088C107.988 25.888 107.748 26.6 107.268 27.224C106.788 27.848 106.084 28.336 105.156 28.688C104.244 29.024 103.156 29.192 101.892 29.192ZM125.423 28.376C125.055 28.648 124.599 28.856 124.055 29C123.527 29.128 122.967 29.192 122.375 29.192C120.839 29.192 119.647 28.8 118.799 28.016C117.967 27.232 117.551 26.08 117.551 24.56V19.256H115.559V16.376H117.551V13.232H121.295V16.376H124.511V19.256H121.295V24.512C121.295 25.056 121.431 25.48 121.703 25.784C121.991 26.072 122.391 26.216 122.903 26.216C123.495 26.216 123.999 26.056 124.415 25.736L125.423 28.376ZM148.027 16.088L143.347 29H139.747L136.843 20.984L133.843 29H130.243L125.587 16.088H129.115L132.163 24.824L135.331 16.088H138.499L141.571 24.824L144.715 16.088H148.027ZM162.064 22.592C162.064 22.64 162.04 22.976 161.992 23.6H152.224C152.4 24.4 152.816 25.032 153.472 25.496C154.128 25.96 154.944 26.192 155.92 26.192C156.592 26.192 157.184 26.096 157.696 25.904C158.224 25.696 158.712 25.376 159.16 24.944L161.152 27.104C159.936 28.496 158.16 29.192 155.824 29.192C154.368 29.192 153.08 28.912 151.96 28.352C150.84 27.776 149.976 26.984 149.368 25.976C148.76 24.968 148.456 23.824 148.456 22.544C148.456 21.28 148.752 20.144 149.344 19.136C149.952 18.112 150.776 17.32 151.816 16.76C152.872 16.184 154.048 15.896 155.344 15.896C156.608 15.896 157.752 16.168 158.776 16.712C159.8 17.256 160.6 18.04 161.176 19.064C161.768 20.072 162.064 21.248 162.064 22.592ZM155.368 18.728C154.52 18.728 153.808 18.968 153.232 19.448C152.656 19.928 152.304 20.584 152.176 21.416H158.536C158.408 20.6 158.056 19.952 157.48 19.472C156.904 18.976 156.2 18.728 155.368 18.728ZM177.204 22.592C177.204 22.64 177.18 22.976 177.132 23.6H167.364C167.54 24.4 167.956 25.032 168.612 25.496C169.268 25.96 170.084 26.192 171.06 26.192C171.732 26.192 172.324 26.096 172.836 25.904C173.364 25.696 173.852 25.376 174.3 24.944L176.292 27.104C175.076 28.496 173.3 29.192 170.964 29.192C169.508 29.192 168.22 28.912 167.1 28.352C165.98 27.776 165.116 26.984 164.508 25.976C163.9 24.968 163.596 23.824 163.596 22.544C163.596 21.28 163.892 20.144 164.484 19.136C165.092 18.112 165.916 17.32 166.956 16.76C168.012 16.184 169.188 15.896 170.484 15.896C171.748 15.896 172.892 16.168 173.916 16.712C174.94 17.256 175.74 18.04 176.316 19.064C176.908 20.072 177.204 21.248 177.204 22.592ZM170.508 18.728C169.66 18.728 168.948 18.968 168.372 19.448C167.796 19.928 167.444 20.584 167.316 21.416H173.676C173.548 20.6 173.196 19.952 172.62 19.472C172.044 18.976 171.34 18.728 170.508 18.728ZM188.025 28.376C187.657 28.648 187.201 28.856 186.657 29C186.129 29.128 185.569 29.192 184.977 29.192C183.441 29.192 182.249 28.8 181.401 28.016C180.569 27.232 180.153 26.08 180.153 24.56V19.256H178.161V16.376H180.153V13.232H183.897V16.376H187.113V19.256H183.897V24.512C183.897 25.056 184.033 25.48 184.305 25.784C184.593 26.072 184.993 26.216 185.505 26.216C186.097 26.216 186.601 26.056 187.017 25.736L188.025 28.376ZM189.646 12.2H194.11L193.366 23.168H190.39L189.646 12.2ZM191.878 29.192C191.222 29.192 190.67 28.984 190.222 28.568C189.79 28.136 189.574 27.616 189.574 27.008C189.574 26.4 189.79 25.896 190.222 25.496C190.654 25.08 191.206 24.872 191.878 24.872C192.55 24.872 193.102 25.08 193.534 25.496C193.966 25.896 194.182 26.4 194.182 27.008C194.182 27.616 193.958 28.136 193.51 28.568C193.078 28.984 192.534 29.192 191.878 29.192Z" fill="white"/>
<defs>
<clipPath id="clip0_90_556">
<rect width="38" height="24" fill="white" transform="translate(5 8)"/>
</clipPath>
</defs>
</svg>
