<svg width="309" height="133" viewBox="0 0 309 133" fill="none" xmlns="http://www.w3.org/2000/svg">
<rect width="309" height="133" fill="#4A707A"/>
<path d="M93.4167 46H66.5833C61.2906 46 57 50.4772 57 56V77C57 82.5228 61.2906 87 66.5833 87H93.4167C98.7094 87 103 82.5228 103 77V56C103 50.4772 98.7094 46 93.4167 46Z" fill="#C4C4C4"/>
<g clip-path="url(#clip0_44_1105)">
<path d="M62.8223 54.2H68.3303V73.512H80.2643V78H62.8223V54.2ZM86.0472 58.688H78.4312V54.2H99.1712V58.688H91.5552V78H86.0472V58.688Z" fill="white"/>
</g>
<path d="M103 78H94V87H103V78Z" fill="#C4C4C4"/>
<path d="M108.992 58.2H112.88V71.832H121.304V75H108.992V58.2ZM135.767 68.592C135.767 68.64 135.743 68.976 135.695 69.6H125.927C126.103 70.4 126.519 71.032 127.175 71.496C127.831 71.96 128.647 72.192 129.623 72.192C130.295 72.192 130.887 72.096 131.399 71.904C131.927 71.696 132.415 71.376 132.863 70.944L134.855 73.104C133.639 74.496 131.863 75.192 129.527 75.192C128.071 75.192 126.783 74.912 125.663 74.352C124.543 73.776 123.679 72.984 123.071 71.976C122.463 70.968 122.159 69.824 122.159 68.544C122.159 67.28 122.455 66.144 123.047 65.136C123.655 64.112 124.479 63.32 125.519 62.76C126.575 62.184 127.751 61.896 129.047 61.896C130.311 61.896 131.455 62.168 132.479 62.712C133.503 63.256 134.303 64.04 134.879 65.064C135.471 66.072 135.767 67.248 135.767 68.592ZM129.071 64.728C128.223 64.728 127.511 64.968 126.935 65.448C126.359 65.928 126.007 66.584 125.879 67.416H132.239C132.111 66.6 131.759 65.952 131.183 65.472C130.607 64.976 129.903 64.728 129.071 64.728ZM146.587 74.376C146.219 74.648 145.763 74.856 145.219 75C144.691 75.128 144.131 75.192 143.539 75.192C142.003 75.192 140.811 74.8 139.963 74.016C139.131 73.232 138.715 72.08 138.715 70.56V65.256H136.723V62.376H138.715V59.232H142.459V62.376H145.675V65.256H142.459V70.512C142.459 71.056 142.595 71.48 142.867 71.784C143.155 72.072 143.555 72.216 144.067 72.216C144.659 72.216 145.163 72.056 145.579 71.736L146.587 74.376ZM150.129 57C150.801 57 151.353 57.216 151.785 57.648C152.217 58.064 152.433 58.616 152.433 59.304C152.433 59.624 152.393 59.944 152.313 60.264C152.233 60.584 152.065 61.064 151.809 61.704L150.417 65.16H148.041L149.073 61.368C148.673 61.192 148.361 60.928 148.137 60.576C147.913 60.224 147.801 59.8 147.801 59.304C147.801 58.616 148.017 58.064 148.449 57.648C148.897 57.216 149.457 57 150.129 57ZM158.892 75.192C157.82 75.192 156.772 75.064 155.748 74.808C154.724 74.536 153.908 74.2 153.3 73.8L154.548 71.112C155.124 71.48 155.82 71.784 156.636 72.024C157.452 72.248 158.252 72.36 159.036 72.36C160.62 72.36 161.412 71.968 161.412 71.184C161.412 70.816 161.196 70.552 160.764 70.392C160.332 70.232 159.668 70.096 158.772 69.984C157.716 69.824 156.844 69.64 156.156 69.432C155.468 69.224 154.868 68.856 154.356 68.328C153.86 67.8 153.612 67.048 153.612 66.072C153.612 65.256 153.844 64.536 154.308 63.912C154.788 63.272 155.476 62.776 156.372 62.424C157.284 62.072 158.356 61.896 159.588 61.896C160.5 61.896 161.404 62 162.3 62.208C163.212 62.4 163.964 62.672 164.556 63.024L163.308 65.688C162.172 65.048 160.932 64.728 159.588 64.728C158.788 64.728 158.188 64.84 157.788 65.064C157.388 65.288 157.188 65.576 157.188 65.928C157.188 66.328 157.404 66.608 157.836 66.768C158.268 66.928 158.956 67.08 159.9 67.224C160.956 67.4 161.82 67.592 162.492 67.8C163.164 67.992 163.748 68.352 164.244 68.88C164.74 69.408 164.988 70.144 164.988 71.088C164.988 71.888 164.748 72.6 164.268 73.224C163.788 73.848 163.084 74.336 162.156 74.688C161.244 75.024 160.156 75.192 158.892 75.192ZM182.423 74.376C182.055 74.648 181.599 74.856 181.055 75C180.527 75.128 179.967 75.192 179.375 75.192C177.839 75.192 176.647 74.8 175.799 74.016C174.967 73.232 174.551 72.08 174.551 70.56V65.256H172.559V62.376H174.551V59.232H178.295V62.376H181.511V65.256H178.295V70.512C178.295 71.056 178.431 71.48 178.703 71.784C178.991 72.072 179.391 72.216 179.903 72.216C180.495 72.216 180.999 72.056 181.415 71.736L182.423 74.376ZM205.027 62.088L200.347 75H196.747L193.843 66.984L190.843 75H187.243L182.587 62.088H186.115L189.163 70.824L192.331 62.088H195.499L198.571 70.824L201.715 62.088H205.027ZM219.064 68.592C219.064 68.64 219.04 68.976 218.992 69.6H209.224C209.4 70.4 209.816 71.032 210.472 71.496C211.128 71.96 211.944 72.192 212.92 72.192C213.592 72.192 214.184 72.096 214.696 71.904C215.224 71.696 215.712 71.376 216.16 70.944L218.152 73.104C216.936 74.496 215.16 75.192 212.824 75.192C211.368 75.192 210.08 74.912 208.96 74.352C207.84 73.776 206.976 72.984 206.368 71.976C205.76 70.968 205.456 69.824 205.456 68.544C205.456 67.28 205.752 66.144 206.344 65.136C206.952 64.112 207.776 63.32 208.816 62.76C209.872 62.184 211.048 61.896 212.344 61.896C213.608 61.896 214.752 62.168 215.776 62.712C216.8 63.256 217.6 64.04 218.176 65.064C218.768 66.072 219.064 67.248 219.064 68.592ZM212.368 64.728C211.52 64.728 210.808 64.968 210.232 65.448C209.656 65.928 209.304 66.584 209.176 67.416H215.536C215.408 66.6 215.056 65.952 214.48 65.472C213.904 64.976 213.2 64.728 212.368 64.728ZM234.204 68.592C234.204 68.64 234.18 68.976 234.132 69.6H224.364C224.54 70.4 224.956 71.032 225.612 71.496C226.268 71.96 227.084 72.192 228.06 72.192C228.732 72.192 229.324 72.096 229.836 71.904C230.364 71.696 230.852 71.376 231.3 70.944L233.292 73.104C232.076 74.496 230.3 75.192 227.964 75.192C226.508 75.192 225.22 74.912 224.1 74.352C222.98 73.776 222.116 72.984 221.508 71.976C220.9 70.968 220.596 69.824 220.596 68.544C220.596 67.28 220.892 66.144 221.484 65.136C222.092 64.112 222.916 63.32 223.956 62.76C225.012 62.184 226.188 61.896 227.484 61.896C228.748 61.896 229.892 62.168 230.916 62.712C231.94 63.256 232.74 64.04 233.316 65.064C233.908 66.072 234.204 67.248 234.204 68.592ZM227.508 64.728C226.66 64.728 225.948 64.968 225.372 65.448C224.796 65.928 224.444 66.584 224.316 67.416H230.676C230.548 66.6 230.196 65.952 229.62 65.472C229.044 64.976 228.34 64.728 227.508 64.728ZM245.025 74.376C244.657 74.648 244.201 74.856 243.657 75C243.129 75.128 242.569 75.192 241.977 75.192C240.441 75.192 239.249 74.8 238.401 74.016C237.569 73.232 237.153 72.08 237.153 70.56V65.256H235.161V62.376H237.153V59.232H240.897V62.376H244.113V65.256H240.897V70.512C240.897 71.056 241.033 71.48 241.305 71.784C241.593 72.072 241.993 72.216 242.505 72.216C243.097 72.216 243.601 72.056 244.017 71.736L245.025 74.376ZM246.646 58.2H251.11L250.366 69.168H247.39L246.646 58.2ZM248.878 75.192C248.222 75.192 247.67 74.984 247.222 74.568C246.79 74.136 246.574 73.616 246.574 73.008C246.574 72.4 246.79 71.896 247.222 71.496C247.654 71.08 248.206 70.872 248.878 70.872C249.55 70.872 250.102 71.08 250.534 71.496C250.966 71.896 251.182 72.4 251.182 73.008C251.182 73.616 250.958 74.136 250.51 74.568C250.078 74.984 249.534 75.192 248.878 75.192Z" fill="white"/>
<defs>
<clipPath id="clip0_44_1105">
<rect width="38" height="24" fill="white" transform="translate(62 54)"/>
</clipPath>
</defs>
</svg>
