<svg width="512" height="512" viewBox="0 0 512 512" fill="none" xmlns="http://www.w3.org/2000/svg">
<g clip-path="url(#clip0_74_824)">
<path d="M499.552 326.542C506.693 336.371 512.421 347.897 513.27 354.119L513.977 359.493L508.603 365.291C493.046 381.979 463.489 386.363 423.679 377.949C411.658 375.403 112.199 278.317 104.633 274.57C92.6117 268.488 62.8425 240.275 59.5191 231.86C57.822 227.476 42.8314 118.582 42.9728 111.652C43.1142 107.551 43.5385 106.561 47.0033 103.096C53.0137 97.0858 56.9028 97.2979 72.1056 104.44C89.5711 112.571 99.9656 118.582 104.491 123.107C107.673 126.289 110.926 132.37 122.027 155.634C129.523 171.332 136.169 184.484 136.877 184.908C138.927 186.252 244.215 219.84 244.71 219.345C244.922 219.132 236.437 190.848 225.76 156.553C215.153 122.329 206.314 92.5603 206.244 90.5097C205.89 85.4892 209.638 81.3173 214.446 81.1759C218.123 81.0344 258.428 95.6008 264.58 99.3485C269.53 102.318 264.863 95.3887 327.725 192.757L372.414 261.912L414.699 276.196C437.963 284.186 459.6 291.964 462.924 293.591C474.661 299.389 489.369 312.683 499.552 326.542Z" fill="#9EA9B7"/>
</g>
<defs>
<clipPath id="clip0_74_824">
<rect width="512" height="512" fill="white"/>
</clipPath>
</defs>
</svg>
