<svg width="512" height="512" viewBox="0 0 512 512" fill="none" xmlns="http://www.w3.org/2000/svg">
<g clip-path="url(#clip0_74_824)">
<path d="M478 133.632C490 135.532 502.2 139.632 507.2 143.432L511.5 146.732L511.8 154.632C512.6 177.432 494.8 201.432 460.7 223.632C450.4 230.332 170 373.432 162 376.132C149.2 380.332 108.2 381.432 99.9 377.832C95.6 375.932 7.99997 309.532 3.19997 304.532C0.399968 301.532 -3.20409e-05 300.532 -3.20409e-05 295.632C-3.20409e-05 287.132 2.89997 284.532 18.7 278.832C36.8 272.232 48.4 269.132 54.8 269.132C59.3 269.132 65.9 271.132 90.2 279.732C106.6 285.532 120.6 290.132 121.4 289.932C123.8 289.432 222 238.732 222 238.032C222 237.732 196 223.732 164.2 207.032C132.5 190.332 105.2 175.532 103.7 174.132C99.9 170.832 99.6 165.232 102.9 161.732C105.4 159.032 144.2 140.832 151.2 139.132C156.8 137.732 148.6 136.132 261.9 160.532L342.4 177.832L382.4 158.032C404.5 147.232 425.3 137.432 428.8 136.232C441.2 132.032 461 131.032 478 133.632Z" fill="#9EA9B7"/>
</g>
<defs>
<clipPath id="clip0_74_824">
<rect width="512" height="512" fill="white"/>
</clipPath>
</defs>
</svg>
