<svg width="512" height="512" viewBox="0 0 512 512" fill="none" xmlns="http://www.w3.org/2000/svg">
<g clip-path="url(#clip0_79_829)">
<path d="M106.667 512H405.333C433.613 511.966 460.724 500.717 480.721 480.721C500.717 460.724 511.966 433.613 512 405.333V106.667C511.966 78.3873 500.717 51.2759 480.721 31.2794C460.724 11.2828 433.613 0.0338743 405.333 0L106.667 0C78.3873 0.0338743 51.2759 11.2828 31.2794 31.2794C11.2828 51.2759 0.0338743 78.3873 0 106.667L0 405.333C0.0338743 433.613 11.2828 460.724 31.2794 480.721C51.2759 500.717 78.3873 511.966 106.667 512V512ZM42.6667 106.667C42.6667 89.6928 49.4095 73.4142 61.4118 61.4118C73.4142 49.4095 89.6928 42.6667 106.667 42.6667H405.333C422.307 42.6667 438.586 49.4095 450.588 61.4118C462.591 73.4142 469.333 89.6928 469.333 106.667V405.333C469.333 422.307 462.591 438.586 450.588 450.588C438.586 462.591 422.307 469.333 405.333 469.333H106.667C89.6928 469.333 73.4142 462.591 61.4118 450.588C49.4095 438.586 42.6667 422.307 42.6667 405.333V106.667ZM134.251 232.085C138.251 236.085 143.677 238.331 149.333 238.331C154.99 238.331 160.415 236.085 164.416 232.085L234.667 161.856L234.816 384C234.816 389.658 237.064 395.084 241.064 399.085C245.065 403.086 250.491 405.333 256.149 405.333C261.807 405.333 267.234 403.086 271.234 399.085C275.235 395.084 277.483 389.658 277.483 384L277.333 161.835L347.584 232.085C349.508 234.187 351.834 235.881 354.424 237.069C357.014 238.257 359.816 238.914 362.664 239.001C365.512 239.088 368.348 238.604 371.006 237.577C373.664 236.55 376.089 235.002 378.139 233.022C380.188 231.042 381.82 228.672 382.938 226.052C384.057 223.431 384.639 220.613 384.65 217.764C384.662 214.914 384.102 212.092 383.005 209.462C381.908 206.832 380.295 204.449 378.261 202.453L377.749 201.92L301.269 125.419C295.326 119.475 288.27 114.759 280.505 111.542C272.739 108.325 264.416 106.67 256.011 106.67C247.605 106.67 239.282 108.325 231.516 111.542C223.751 114.759 216.695 119.475 210.752 125.419L134.251 201.92C130.251 205.921 128.005 211.346 128.005 217.003C128.005 222.66 130.251 228.085 134.251 232.085V232.085Z" fill="#95A1B0"/>
</g>
<defs>
<clipPath id="clip0_79_829">
<rect width="512" height="512" fill="white"/>
</clipPath>
</defs>
</svg>
