<svg width="512" height="512" viewBox="0 0 512 512" fill="none" xmlns="http://www.w3.org/2000/svg">
<path d="M481.109 281.813L443.733 147.541C431.677 104.276 405.507 66.2811 369.383 39.5924C333.259 12.9037 289.253 -0.947746 244.355 0.238811C199.457 1.42537 156.243 17.5818 121.579 46.1413C86.9151 74.7008 62.7893 114.025 53.0347 157.867L24.1493 287.765C20.3386 304.915 20.4277 322.702 24.4101 339.813C28.3924 356.924 36.1663 372.922 47.158 386.627C58.1498 400.332 72.0788 411.394 87.917 418.996C103.755 426.598 121.098 430.546 138.667 430.549H147.2C153.989 454.027 168.223 474.663 187.757 489.349C207.292 504.036 231.07 511.977 255.509 511.977C279.949 511.977 303.727 504.036 323.261 489.349C342.796 474.663 357.03 454.027 363.819 430.549H367.936C386.025 430.552 403.87 426.371 420.076 418.335C436.282 410.299 450.411 398.624 461.358 384.223C472.305 369.823 479.774 353.086 483.182 335.321C486.59 317.555 485.844 299.243 481.003 281.813H481.109ZM410.517 345.472C405.565 352.047 399.147 357.377 391.773 361.036C384.4 364.695 376.274 366.583 368.043 366.549H138.667C130.682 366.548 122.799 364.753 115.6 361.298C108.402 357.843 102.071 352.815 97.0746 346.587C92.0784 340.358 88.5447 333.087 86.7341 325.31C84.9235 317.533 84.8822 309.448 86.6133 301.653L115.499 171.52C122.132 141.57 138.593 114.699 162.262 95.1849C185.932 75.6711 215.449 64.636 246.114 63.8362C276.78 63.0364 306.832 72.518 331.486 90.7715C356.141 109.025 373.98 135.001 382.165 164.565L419.456 298.837C421.706 306.769 422.069 315.117 420.517 323.215C418.965 331.312 415.541 338.934 410.517 345.472V345.472Z" fill="#95A1B0"/>
</svg>
