<svg width="512" height="512" viewBox="0 0 512 512" fill="none" xmlns="http://www.w3.org/2000/svg">
<path d="M224 1.50009C185.9 6.20009 148 20.1001 116.5 40.8001C100.6 51.2001 90.9 59.0001 76.6 72.9001C39.4 109.3 14.6 154.9 4.6 205.5C1 223.6 0 235.1 0 256C0 276.9 1 288.4 4.6 306.5C14.6 357.4 39.3 402.7 77.1 439.5C107.4 469.1 141.7 489.4 181.4 501.4C194.6 505.5 214.7 509.5 228.2 511C240.7 512.3 271.3 512.3 283.8 511C342.5 504.7 397.5 478 439.1 435.4C453 421.1 460.8 411.4 471.2 395.5C488.6 369 501.1 338.2 507.4 306.5C511 288.4 512 276.9 512 256C512 235.1 511 223.6 507.4 205.5C489.3 113.5 420.7 37.9001 330.6 10.6001C317.4 6.50009 297.3 2.50009 283.8 1.00009C270.7 -0.39991 236.9 -0.09991 224 1.50009ZM152 109.5V121H173.5H195V109.5V98.0001H201H207V109.5V121H228.5H250V109.5V98.0001H256H262V109.5V121H283.5H305V109.5V98.0001H311H317V109.5V121H338.5H360V109.5V98.0001H365.5H371V109.5V121H387H403V267.5V414H256H109V267.5V121H125H141V109.5V98.0001H146.5H152V109.5Z" fill="#F54658"/>
<path d="M126 303V386H256H386V303V220H256H126V303ZM275 275.5V294H256H237V275.5V257H256H275V275.5ZM334 275.5V294H315.5H297V275.5V257H315.5H334V275.5ZM215 335V354H196.5H178V335V316H196.5H215V335ZM275 335V354H256H237V335V316H256H275V335ZM334 335V354H315.5H297V335V316H315.5H334V335Z" fill="#F54658"/>
</svg>
