<svg width="512" height="512" viewBox="0 0 512 512" fill="none" xmlns="http://www.w3.org/2000/svg">
<path d="M231 0.599895C169.7 7.89989 120.2 30.8999 77.6 71.9999C37.8 110.3 12.6 158.6 2.69998 215C0.799976 225.9 0.599976 231.2 0.599976 256C0.599976 280.8 0.799976 286.1 2.69998 297C12.1 350.9 34.7 395.7 72 434.4C110.3 474.1 158.6 499.4 215 509.3C225.9 511.2 231.2 511.4 256 511.4C287.3 511.4 296.7 510.4 321.3 504.1C409.4 481.3 481.3 409.4 504.1 321.3C510.4 296.7 511.4 287.3 511.4 256C511.4 224.7 510.4 215.3 504.1 190.7C481.3 102.6 409.5 30.6999 321.3 7.89989C298.7 2.09989 287.9 0.799895 260 0.499895C246 0.299895 232.9 0.399895 231 0.599895ZM284 21.3999C337.2 28.0999 383.8 50.6999 421.8 88.2999C441.5 107.7 455.3 126.9 467.5 151.5C484 185 490.7 211.8 491.7 248.7C492.9 290.7 485.3 325.5 467.4 361.3C449 397.8 420.2 430.4 386.1 453C347.4 478.7 303.1 492 256 492C191.4 492 132.8 467.2 87.4 420.8C69.3 402.3 57.9 386.6 46.4 364.6C28.4 330 20 295.4 20 256C20 216.6 28.4 182 46.4 147.4C58.6 123.9 72.2 105.8 92.2 86.4999C130 49.6999 176.5 27.5999 229.5 21.0999C241 19.6999 271.6 19.8999 284 21.3999Z" fill="#F54658"/>
<path d="M227.5 41.5999C179.5 48.0999 136.7 69.3999 102.3 103.9C61.9 144.5 40 197.9 40 256C40 288.2 45.8 315.6 58.6 344.5C74.9 381 102.5 413.4 136.8 436.3C144.8 441.6 162.9 451.5 163.4 450.8C163.7 450.5 170.1 326.2 170 321.9C170 319.7 169.3 319.1 165.8 318.1C138.3 310.1 118.7 285.9 111.4 251.1C105.2 221.1 109.4 192.6 123.2 170.5C140.3 143.3 167.1 127.5 190.2 131.1C212.6 134.6 234.7 152.5 247.4 177.5C255 192.5 258.1 205.8 258.1 223.7C258 256.4 246.6 286.6 227.8 303.5C221.1 309.5 215.9 312.5 205.2 316.5L196.5 319.8L196.8 325.2C200.2 394.4 203.1 450.4 203.6 457.2L204.2 465.9L210.9 467.4C237.4 473.4 272.6 473.5 301 467.5C307.8 466.1 324.9 461.2 325 460.7C325.5 458.3 331.7 331.4 331.4 331.1C331.1 330.8 327.9 329.6 324.4 328.3C314.6 325.1 307.4 320.4 298.3 311.4C286.9 300.1 286.5 298.6 286.7 269C286.9 242.2 290.6 197.1 297.1 143C298.7 129 298.2 130 305 130H311V202.5V275H318.5H326V202.5V130H332.5H339V202.5V275H346H353V202.5V130H360.5H368V202.5V275H375H382V202.5V130H386.5C391.6 130 391.3 129.4 392.9 143C399.4 197.1 403.1 242.2 403.3 269C403.5 298.6 403.1 300.1 391.7 311.4C382.5 320.4 375.6 325 365.3 328.5C361.6 329.8 358.4 331.5 358.2 332.2C357.8 334.3 363.8 442.1 364.3 442.7C365.2 443.5 384.5 430.4 393.8 422.6C434.5 388.6 459.8 344.8 469.5 291.5C471.7 279.3 472.6 245.6 471.1 232C465.4 182.8 443.8 138.1 408.9 103.1C385.1 79.3999 356.2 61.2999 325.5 51.0999C301.7 43.1999 280.9 39.8999 254.7 40.0999C245.2 40.1999 233 40.7999 227.5 41.5999Z" fill="#F54658"/>
<path d="M135 192.7C128 201.6 123 218.3 122.3 235.7C121.8 247 121.9 248.5 124.5 256.7C129.2 271.9 134.5 281.5 143 290C153.6 300.6 164 305.7 164 300.3C164 299.5 162 296.2 159.6 293.1C152.4 283.7 148.5 276.4 142.9 261L137.5 246.5V228C137.5 211.9 137.8 208.4 139.8 201.1C141.5 194.7 141.8 192.5 140.9 191.4C139.2 189.3 137.4 189.7 135 192.7Z" fill="#F54658"/>
</svg>
