<?xml version="1.0" standalone="no"?>
<!DOCTYPE svg PUBLIC "-//W3C//DTD SVG 20010904//EN"
 "http://www.w3.org/TR/2001/REC-SVG-20010904/DTD/svg10.dtd">
<svg version="1.0" xmlns="http://www.w3.org/2000/svg"
 width="512.000000pt" height="512.000000pt" viewBox="0 0 512.000000 512.000000"
 preserveAspectRatio="xMidYMid meet">
<metadata>
Created by potrace 1.16, written by Peter Selinger 2001-2019
</metadata>
<g transform="translate(0.000000,512.000000) scale(0.100000,-0.100000)"
fill="#000000" stroke="none">
<path d="M340 3785 c-120 -19 -242 -60 -292 -98 l-43 -33 -3 -79 c-8 -228 170
-468 511 -690 103 -67 2907 -1498 2987 -1525 128 -42 538 -53 621 -17 43 19
919 683 967 733 28 30 32 40 32 89 0 85 -29 111 -187 168 -181 66 -297 97
-361 97 -45 0 -111 -20 -354 -106 -164 -58 -304 -104 -312 -102 -24 5 -1006
512 -1006 519 0 3 260 143 578 310 317 167 590 315 605 329 38 33 41 89 8 124
-25 27 -413 209 -483 226 -56 14 26 30 -1107 -214 l-805 -173 -400 198 c-221
108 -429 206 -464 218 -124 42 -322 52 -492 26z"/>
</g>
</svg>
