<svg width="512" height="512" viewBox="0 0 512 512" fill="none" xmlns="http://www.w3.org/2000/svg">
<path d="M230.5 0.699895C119.8 12.5999 30.2 91.9999 5.6 200C1.3 219.2 0.5 227.9 0.5 256.5C0.6 287.4 1.7 297 8 321.5C31 409.8 102.6 481.3 190.7 504.1C215.3 510.4 224.7 511.4 256 511.4C280.8 511.4 286.1 511.2 297 509.3C353.4 499.4 401.7 474.1 440 434.4C477.3 395.7 499.8 351 509.3 297C511.2 286.1 511.4 280.8 511.4 256C511.4 224.7 510.4 215.3 504.1 190.7C481.3 102.6 409.5 30.6999 321.3 7.89989C298.6 2.09989 287.9 0.799895 260 0.499895C246 0.299895 232.7 0.399895 230.5 0.699895ZM295 27.7999C319.1 32.3999 336.3 37.9999 357.5 48.3999C416.5 77.3999 460.3 129.6 478.4 192.8C485.2 216.4 486.5 226.2 486.5 256C486.5 284.2 485.8 290.8 480.4 312.1C472.8 342.9 456.7 375.2 436.5 400.5C428.9 410 411.2 427.8 401.5 435.6C375.8 456.4 343.5 472.6 312.1 480.4C290.8 485.8 284.2 486.5 256 486.5C227.8 486.5 221.2 485.8 199.9 480.4C177.1 474.7 149.1 462.5 130.2 450C75.6 413.8 39.7 359.3 27.8 294.7C25.8 284 25.5 279.2 25.5 256C25.5 232.8 25.8 228 27.8 217.3C36.7 169 58 127.9 91.8 93.6999C128.5 56.5999 173.3 34.0999 226 26.4999C240.3 24.3999 281.1 25.1999 295 27.7999Z" fill="#F54658"/>
<path d="M230.4 127.5C210 168.9 203 182.2 201.5 182.5C200.4 182.8 174.3 186.6 143.5 191C83 199.7 82.7 199.7 83.2 200.8C83.4 201.4 166.6 282.7 169.2 284.9C169.8 285.4 151.7 394.6 149.5 403.8C149.2 405 149.3 406 149.7 406C150.2 406 174.6 393.4 204 377.9L257.5 349.8L262 352C264.5 353.2 288.7 365.9 315.9 380.2C343 394.4 365.5 405.9 365.7 405.6C366 405.3 361.6 378.2 356 345.4L345.8 285.7L354.6 277C359.5 272.3 379.2 253.1 398.3 234.4C426.5 207 432.8 200.4 431.3 199.8C430.3 199.4 403.9 195.5 372.5 191C341.2 186.6 314.6 182.5 313.5 182C312.1 181.5 303 163.9 285 127.1C270.4 97.4 258.2 73.1 257.9 73C257.6 73 245.2 97.5 230.4 127.5Z" fill="#F54658"/>
</svg>
